<svg width="528" height="756" viewBox="0 0 528 756" fill="none" xmlns="http://www.w3.org/2000/svg">
<rect x="0.5" y="-35.5" width="527.953" height="791" stroke="white" stroke-opacity="0.2"/>
<rect x="0.5" y="-35.5" width="131.238" height="131" stroke="white" stroke-opacity="0.2" stroke-dasharray="3 3"/>
<rect x="132.738" y="-35.5" width="131.238" height="131" stroke="white" stroke-opacity="0.2" stroke-dasharray="3 3"/>
<rect x="264.977" y="-35.5" width="131.238" height="131" stroke="white" stroke-opacity="0.2" stroke-dasharray="3 3"/>
<rect x="397.215" y="-35.5" width="131.238" height="131" stroke="white" stroke-opacity="0.2" stroke-dasharray="3 3"/>
<rect x="0.5" y="96.5" width="131.238" height="131" stroke="white" stroke-opacity="0.2" stroke-dasharray="3 3"/>
<rect x="132.738" y="96.5" width="131.238" height="131" stroke="white" stroke-opacity="0.2" stroke-dasharray="3 3"/>
<rect x="264.977" y="96.5" width="131.238" height="131" stroke="white" stroke-opacity="0.2" stroke-dasharray="3 3"/>
<rect x="397.215" y="96.5" width="131.238" height="131" stroke="white" stroke-opacity="0.2" stroke-dasharray="3 3"/>
<rect x="0.5" y="228.5" width="131.238" height="131" stroke="white" stroke-opacity="0.2" stroke-dasharray="3 3"/>
<rect x="132.738" y="228.5" width="131.238" height="131" stroke="white" stroke-opacity="0.2" stroke-dasharray="3 3"/>
<rect x="264.977" y="228.5" width="131.238" height="131" stroke="white" stroke-opacity="0.2" stroke-dasharray="3 3"/>
<rect x="397.215" y="228.5" width="131.238" height="131" stroke="white" stroke-opacity="0.2" stroke-dasharray="3 3"/>
<rect x="0.5" y="360.5" width="131.238" height="131" stroke="white" stroke-opacity="0.2" stroke-dasharray="3 3"/>
<rect x="132.738" y="360.5" width="131.238" height="131" stroke="white" stroke-opacity="0.2" stroke-dasharray="3 3"/>
<rect x="264.977" y="360.5" width="131.238" height="131" stroke="white" stroke-opacity="0.2" stroke-dasharray="3 3"/>
<rect x="397.215" y="360.5" width="131.238" height="131" stroke="white" stroke-opacity="0.2" stroke-dasharray="3 3"/>
<rect x="0.5" y="492.5" width="131.238" height="131" stroke="white" stroke-opacity="0.2" stroke-dasharray="3 3"/>
<rect x="132.738" y="492.5" width="131.238" height="131" stroke="white" stroke-opacity="0.2" stroke-dasharray="3 3"/>
<rect x="264.977" y="492.5" width="131.238" height="131" stroke="white" stroke-opacity="0.2" stroke-dasharray="3 3"/>
<rect x="397.215" y="492.5" width="131.238" height="131" stroke="white" stroke-opacity="0.2" stroke-dasharray="3 3"/>
<rect x="0.5" y="624.5" width="131.238" height="131" stroke="white" stroke-opacity="0.2" stroke-dasharray="3 3"/>
<rect x="132.738" y="624.5" width="131.238" height="131" stroke="white" stroke-opacity="0.2" stroke-dasharray="3 3"/>
<rect x="264.977" y="624.5" width="131.238" height="131" stroke="white" stroke-opacity="0.2" stroke-dasharray="3 3"/>
<rect x="397.215" y="624.5" width="131.238" height="131" stroke="white" stroke-opacity="0.2" stroke-dasharray="3 3"/>
</svg>
