<svg width="19" height="18" viewBox="0 0 19 18" fill="none" xmlns="http://www.w3.org/2000/svg">
<path d="M2.87493 18C2.34986 18 1.90038 17.8042 1.52647 17.4125C1.15256 17.0208 0.965607 16.55 0.965607 16V2C0.965607 1.45 1.15256 0.979167 1.52647 0.5875C1.90038 0.195833 2.34986 0 2.87493 0H16.2402C16.7652 0 17.2147 0.195833 17.5886 0.5875C17.9625 0.979167 18.1495 1.45 18.1495 2V16C18.1495 16.55 17.9625 17.0208 17.5886 17.4125C17.2147 17.8042 16.7652 18 16.2402 18H2.87493ZM14.5934 16H16.2402V14.275L14.5934 16ZM3.68639 16H5.42864L8.29262 13H10.3213L7.45729 16H8.98475L11.8487 13H13.8774L11.0134 16H12.5647L15.4287 13H16.2402V2H2.87493V14.725L4.52172 13H6.55037L3.68639 16ZM5.40478 11L4.06825 9.6L8.29262 5.175L10.2019 7.175L13.7103 3.5L15.0468 4.9L10.2019 10L8.29262 8L5.40478 11Z" fill="#E8EAED"/>
</svg>
