<svg width="24" height="14" viewBox="0 0 24 14" fill="none" xmlns="http://www.w3.org/2000/svg">
<path d="M0 13.5749V11.8693C0 11.0932 0.364742 10.4616 1.09423 9.97425C1.82371 9.48694 2.7853 9.24329 3.979 9.24329C4.19453 9.24329 4.40177 9.2478 4.60072 9.25683C4.79967 9.26585 4.99033 9.28841 5.1727 9.32451C4.9406 9.70352 4.76651 10.1006 4.65046 10.5157C4.53441 10.9308 4.47638 11.364 4.47638 11.8152V13.5749H0ZM5.9685 13.5749V11.8152C5.9685 11.2376 6.11357 10.7097 6.40371 10.2314C6.69384 9.75316 7.10418 9.33353 7.63471 8.97257C8.16525 8.6116 8.7994 8.34087 9.53717 8.16039C10.2749 7.97991 11.0749 7.88966 11.937 7.88966C12.8157 7.88966 13.6239 7.97991 14.3617 8.16039C15.0995 8.34087 15.7336 8.6116 16.2642 8.97257C16.7947 9.33353 17.2009 9.75316 17.4827 10.2314C17.7646 10.7097 17.9055 11.2376 17.9055 11.8152V13.5749H5.9685ZM19.3976 13.5749V11.8152C19.3976 11.3459 19.3438 10.9037 19.236 10.4886C19.1282 10.0735 18.9666 9.68548 18.7511 9.32451C18.9334 9.28841 19.1199 9.26585 19.3106 9.25683C19.5013 9.2478 19.6961 9.24329 19.895 9.24329C21.0887 9.24329 22.0503 9.48243 22.7798 9.96071C23.5093 10.439 23.874 11.0752 23.874 11.8693V13.5749H19.3976ZM8.08235 11.4091H15.8165C15.6507 11.0481 15.1907 10.7323 14.4363 10.4616C13.682 10.1908 12.8489 10.0555 11.937 10.0555C11.0252 10.0555 10.192 10.1908 9.4377 10.4616C8.68334 10.7323 8.23156 11.0481 8.08235 11.4091ZM3.979 8.16039C3.43189 8.16039 2.96353 7.94832 2.57392 7.52418C2.18431 7.10005 1.9895 6.59018 1.9895 5.99459C1.9895 5.38094 2.18431 4.86656 2.57392 4.45145C2.96353 4.03634 3.43189 3.82878 3.979 3.82878C4.54269 3.82878 5.0152 4.03634 5.39652 4.45145C5.77784 4.86656 5.9685 5.38094 5.9685 5.99459C5.9685 6.59018 5.77784 7.10005 5.39652 7.52418C5.0152 7.94832 4.54269 8.16039 3.979 8.16039ZM19.895 8.16039C19.3479 8.16039 18.8795 7.94832 18.4899 7.52418C18.1003 7.10005 17.9055 6.59018 17.9055 5.99459C17.9055 5.38094 18.1003 4.86656 18.4899 4.45145C18.8795 4.03634 19.3479 3.82878 19.895 3.82878C20.4587 3.82878 20.9312 4.03634 21.3125 4.45145C21.6939 4.86656 21.8845 5.38094 21.8845 5.99459C21.8845 6.59018 21.6939 7.10005 21.3125 7.52418C20.9312 7.94832 20.4587 8.16039 19.895 8.16039ZM11.937 7.07749C11.108 7.07749 10.4034 6.76164 9.82316 6.12995C9.24289 5.49826 8.95276 4.7312 8.95276 3.82878C8.95276 2.90832 9.24289 2.13675 9.82316 1.51408C10.4034 0.891412 11.108 0.580078 11.937 0.580078C12.7825 0.580078 13.4913 0.891412 14.0633 1.51408C14.6353 2.13675 14.9213 2.90832 14.9213 3.82878C14.9213 4.7312 14.6353 5.49826 14.0633 6.12995C13.4913 6.76164 12.7825 7.07749 11.937 7.07749ZM11.937 4.91168C12.2189 4.91168 12.4551 4.80791 12.6458 4.60035C12.8364 4.39279 12.9318 4.13561 12.9318 3.82878C12.9318 3.52196 12.8364 3.26477 12.6458 3.05722C12.4551 2.84966 12.2189 2.74588 11.937 2.74588C11.6552 2.74588 11.4189 2.84966 11.2282 3.05722C11.0376 3.26477 10.9423 3.52196 10.9423 3.82878C10.9423 4.13561 11.0376 4.39279 11.2282 4.60035C11.4189 4.80791 11.6552 4.91168 11.937 4.91168Z" fill="#E8EAED"/>
</svg>
