<svg width="24" height="24" viewBox="0 0 24 24" fill="none" xmlns="http://www.w3.org/2000/svg">
<path d="M11.9999 22L11.7499 19H11.4999C9.13321 19 7.12488 18.175 5.47488 16.525C3.82488 14.875 2.99988 12.8667 2.99988 10.5C2.99988 8.13333 3.82488 6.125 5.47488 4.475C7.12488 2.825 9.13321 2 11.4999 2C12.6832 2 13.7874 2.22083 14.8124 2.6625C15.8374 3.10417 16.7374 3.7125 17.5124 4.4875C18.2874 5.2625 18.8957 6.1625 19.3374 7.1875C19.779 8.2125 19.9999 9.31667 19.9999 10.5C19.9999 11.75 19.7957 12.95 19.3874 14.1C18.979 15.25 18.4207 16.3167 17.7124 17.3C17.004 18.2833 16.1624 19.175 15.1874 19.975C14.2124 20.775 13.1499 21.45 11.9999 22ZM13.9999 18.35C15.1832 17.35 16.1457 16.1792 16.8874 14.8375C17.629 13.4958 17.9999 12.05 17.9999 10.5C17.9999 8.68333 17.3707 7.14583 16.1124 5.8875C14.854 4.62917 13.3165 4 11.4999 4C9.68321 4 8.14571 4.62917 6.88738 5.8875C5.62904 7.14583 4.99988 8.68333 4.99988 10.5C4.99988 12.3167 5.62904 13.8542 6.88738 15.1125C8.14571 16.3708 9.68321 17 11.4999 17H13.9999V18.35ZM11.4749 15.975C11.7582 15.975 11.9999 15.875 12.1999 15.675C12.3999 15.475 12.4999 15.2333 12.4999 14.95C12.4999 14.6667 12.3999 14.425 12.1999 14.225C11.9999 14.025 11.7582 13.925 11.4749 13.925C11.1915 13.925 10.9499 14.025 10.7499 14.225C10.5499 14.425 10.4499 14.6667 10.4499 14.95C10.4499 15.2333 10.5499 15.475 10.7499 15.675C10.9499 15.875 11.1915 15.975 11.4749 15.975ZM10.7499 12.8H12.2499C12.2499 12.3 12.2999 11.95 12.3999 11.75C12.4999 11.55 12.8165 11.1833 13.3499 10.65C13.6499 10.35 13.8999 10.025 14.0999 9.675C14.2999 9.325 14.3999 8.95 14.3999 8.55C14.3999 7.7 14.1124 7.0625 13.5374 6.6375C12.9624 6.2125 12.2832 6 11.4999 6C10.7665 6 10.1499 6.20417 9.64988 6.6125C9.14988 7.02083 8.79988 7.51667 8.59988 8.1L9.99988 8.65C10.0832 8.36667 10.2415 8.0875 10.4749 7.8125C10.7082 7.5375 11.0499 7.4 11.4999 7.4C11.9499 7.4 12.2874 7.525 12.5124 7.775C12.7374 8.025 12.8499 8.3 12.8499 8.6C12.8499 8.88333 12.7665 9.1375 12.5999 9.3625C12.4332 9.5875 12.2332 9.81667 11.9999 10.05C11.4165 10.55 11.0624 10.9458 10.9374 11.2375C10.8124 11.5292 10.7499 12.05 10.7499 12.8Z" fill="#E8EAED"/>
</svg>
