<svg width="19" height="18" viewBox="0 0 19 18" fill="none" xmlns="http://www.w3.org/2000/svg">
<path d="M3.27959 6.8994L5.05604 7.61129C5.26861 7.20861 5.48877 6.8203 5.71652 6.44637C5.94427 6.07245 6.19479 5.69852 6.46809 5.3246L5.19269 5.0873L3.27959 6.8994ZM6.51364 8.68992L9.10999 11.1276C9.74768 10.8975 10.4309 10.5452 11.1597 10.0706C11.8885 9.59597 12.5718 9.05666 13.2095 8.45262C14.2723 7.4459 15.1036 6.32772 15.7033 5.09809C16.3031 3.86845 16.565 2.73589 16.4891 1.70041C15.3959 1.6285 14.1964 1.87658 12.8906 2.44466C11.5849 3.01274 10.4006 3.80014 9.33774 4.80686C8.70004 5.41089 8.13066 6.05807 7.62961 6.74839C7.12856 7.43871 6.75657 8.08589 6.51364 8.68992ZM10.5676 7.2877C10.2184 6.95692 10.0438 6.55064 10.0438 6.06885C10.0438 5.58707 10.2184 5.18078 10.5676 4.85C10.9168 4.51922 11.3495 4.35383 11.8658 4.35383C12.382 4.35383 12.8147 4.51922 13.1639 4.85C13.5131 5.18078 13.6878 5.58707 13.6878 6.06885C13.6878 6.55064 13.5131 6.95692 13.1639 7.2877C12.8147 7.61848 12.382 7.78387 11.8658 7.78387C11.3495 7.78387 10.9168 7.61848 10.5676 7.2877ZM11.0003 14.2125L12.9134 12.4004L12.6629 11.1923C12.2681 11.4512 11.8733 11.6849 11.4786 11.8935C11.0838 12.102 10.6739 12.3069 10.2487 12.5083L11.0003 14.2125ZM18.1289 0.125608C18.4174 1.8658 18.239 3.55924 17.5937 5.20595C16.9484 6.85266 15.8362 8.42386 14.2571 9.91956L14.7126 12.0552C14.7734 12.3429 14.7582 12.6233 14.6671 12.8966C14.576 13.1698 14.4241 13.4071 14.2116 13.6085L10.3854 17.2327L8.47229 12.9829L4.57777 9.29395L0.0910999 7.48186L3.89452 3.85766C4.10709 3.65632 4.36141 3.5125 4.65748 3.42621C4.95355 3.33992 5.25343 3.32554 5.55709 3.38307L7.81181 3.81452C9.39088 2.31882 11.0459 1.26176 12.7768 0.64335C14.5077 0.0249361 16.2917 -0.147645 18.1289 0.125608ZM1.70812 12.0337C2.23954 11.5303 2.88862 11.275 3.65538 11.2678C4.42214 11.2607 5.07123 11.5087 5.60264 12.0121C6.13406 12.5155 6.39597 13.1303 6.38838 13.8566C6.38079 14.5828 6.11128 15.1977 5.57987 15.701C5.20028 16.0606 4.56638 16.3698 3.67816 16.6286C2.78993 16.8875 1.56388 17.1176 0 17.319C0.212566 15.8376 0.455499 14.6763 0.728799 13.835C1.0021 12.9937 1.32854 12.3932 1.70812 12.0337ZM3.0063 13.2417C2.85446 13.3856 2.70263 13.648 2.5508 14.0291C2.39896 14.4103 2.29268 14.795 2.23195 15.1833C2.6419 15.1257 3.04805 15.0287 3.45041 14.892C3.85276 14.7554 4.12986 14.6152 4.28169 14.4714C4.46389 14.2988 4.56258 14.0903 4.57777 13.8458C4.59295 13.6013 4.50944 13.3927 4.32724 13.2202C4.14504 13.0476 3.92489 12.9649 3.66677 12.9721C3.40865 12.9793 3.1885 13.0692 3.0063 13.2417Z" fill="#E8EAED"/>
</svg>
