<svg width="48" height="48" viewBox="0 0 48 48" fill="none" xmlns="http://www.w3.org/2000/svg">
<path d="M12 44V35.4C10.1 33.6667 8.625 31.6417 7.575 29.325C6.525 27.0083 6 24.5667 6 22C6 17 7.75 12.75 11.25 9.25C14.75 5.75 19 4 24 4C28.1667 4 31.8583 5.225 35.075 7.675C38.2917 10.125 40.3833 13.3167 41.35 17.25L43.95 27.5C44.1167 28.1333 44 28.7083 43.6 29.225C43.2 29.7417 42.6667 30 42 30H38V36C38 37.1 37.6083 38.0417 36.825 38.825C36.0417 39.6083 35.1 40 34 40H30V44H26V36H34V26H39.4L37.5 18.25C36.7333 15.2167 35.1 12.75 32.6 10.85C30.1 8.95 27.2333 8 24 8C20.1333 8 16.8333 9.35 14.1 12.05C11.3667 14.75 10 18.0333 10 21.9C10 23.9 10.4083 25.8 11.225 27.6C12.0417 29.4 13.2 31 14.7 32.4L16 33.6V44H12ZM24 32C24.5667 32 25.0417 31.8083 25.425 31.425C25.8083 31.0417 26 30.5667 26 30C26 29.4333 25.8083 28.9583 25.425 28.575C25.0417 28.1917 24.5667 28 24 28C23.4333 28 22.9583 28.1917 22.575 28.575C22.1917 28.9583 22 29.4333 22 30C22 30.5667 22.1917 31.0417 22.575 31.425C22.9583 31.8083 23.4333 32 24 32ZM22.5 25.6H25.55C25.55 24.7667 25.6583 24.0917 25.875 23.575C26.0917 23.0583 26.5333 22.4333 27.2 21.7C27.8 21.0333 28.3833 20.3583 28.95 19.675C29.5167 18.9917 29.8 18.1 29.8 17C29.8 15.6 29.2583 14.4167 28.175 13.45C27.0917 12.4833 25.75 12 24.15 12C22.8167 12 21.6083 12.3833 20.525 13.15C19.4417 13.9167 18.6833 14.9167 18.25 16.15L21 17.3C21.2333 16.5667 21.6417 15.975 22.225 15.525C22.8083 15.075 23.45 14.85 24.15 14.85C24.8833 14.85 25.4917 15.05 25.975 15.45C26.4583 15.85 26.7 16.3667 26.7 17C26.7 17.7 26.4917 18.325 26.075 18.875C25.6583 19.425 25.1667 19.9833 24.6 20.55C23.9333 21.25 23.4167 21.95 23.05 22.65C22.6833 23.35 22.5 24.3333 22.5 25.6Z" fill="#E8EAED"/>
</svg>
